<svg xmlns="http://www.w3.org/2000/svg" width="20" height="20" viewBox="0 0 20 20">
    <g fill="none" fill-rule="evenodd">
        <g fill="#323A44" fill-rule="nonzero">
            <g>
                <g>
                    <g>
                        <g>
                            <path d="M10 0c.116 0 .232.002.348.006l.098.004c.092.004.183.009.273.015l.038.004c2.386.176 4.605 1.19 6.314 2.9 1.781 1.781 2.808 4.116 2.919 6.617.007.15.01.302.01.454l-.006-.344c.004.114.006.229.006.344 0 .152-.003.303-.01.455-.111 2.5-1.138 4.835-2.919 6.616-1.71 1.71-3.928 2.724-6.315 2.901l-.036.002c-.091.007-.182.012-.274.016l-.1.004c-.115.004-.23.006-.346.006-2.671 0-5.182-1.04-7.071-2.929C1.04 15.182 0 12.671 0 10c0-2.671 1.04-5.182 2.929-7.071C4.818 1.04 7.329 0 10 0zm2.646 1.987l-.167-.054-.096-.029.095.03c-.085-.026-.171-.051-.257-.075l.162.045c-.24-.07-.483-.13-.728-.178l-.046-.01.046.01c-.104-.021-.208-.04-.313-.057l.267.047c-.106-.02-.212-.039-.32-.055l.053.008c-.114-.018-.228-.034-.343-.048l.29.04c-.114-.018-.228-.033-.344-.046l.054.006c-.11-.013-.222-.024-.333-.032l.28.026c-.1-.011-.201-.02-.302-.028l.022.002c-.084-.007-.168-.012-.253-.016l.23.014c-.121-.01-.244-.016-.367-.02L10 1.563l-.253.003C5.211 1.7 1.563 5.432 1.563 10c0 4.652 3.785 8.438 8.437 8.438l.276-.005.138-.006c.076-.003.153-.008.23-.014l-.23.014.252-.015-.022.001c.1-.008.202-.017.302-.028l-.28.027c.111-.01.222-.02.332-.033l-.052.006c.115-.013.23-.029.344-.046l-.292.04c.115-.014.23-.03.344-.048l-.052.008c.106-.016.212-.035.317-.055l-.265.047c.105-.017.21-.036.314-.057l-.049.01c.206-.04.411-.088.613-.143l.162-.046-.162.046c.087-.023.173-.048.259-.074l-.097.028c.089-.026.177-.054.264-.082l-.167.054c.094-.03.188-.06.281-.092l-.114.038c1.768-.586 3.279-1.741 4.313-3.247.014-.029.03-.056.048-.083.808-1.209 1.287-2.581 1.403-4.004l.004-.047-.004.047c.008-.103.015-.206.02-.31l-.016.263c.008-.107.014-.214.018-.32l-.003.057c.006-.123.009-.246.009-.369l-.006-.311-.003-.06.003.06c-.005-.118-.012-.236-.02-.354l-.002-.014.001.014c-.114-1.428-.593-2.805-1.404-4.018-.018-.027-.034-.054-.048-.082-.986-1.437-2.406-2.554-4.068-3.162l-.245-.086zM15.625 10c0-.432-.35-.781-.781-.781H6.75l2.823-2.805c.306-.305.308-.8.004-1.105-.304-.306-.8-.308-1.105-.004L5.418 8.34c-.446.443-.691 1.033-.691 1.66s.245 1.217.691 1.66l3.055 3.035c.152.151.351.227.55.227.201 0 .402-.077.555-.23.304-.307.302-.801-.004-1.106l-2.823-2.805h8.093c.431 0 .781-.35.781-.781z" transform="translate(-375 -1238) translate(225 946) translate(0 61) translate(135 216) matrix(0 -1 -1 0 35 35)"/>
                        </g>
                    </g>
                </g>
            </g>
        </g>
    </g>
</svg>
